{
	"asset":{
		"generator":"Khronos glTF Blender I/O v3.6.27",
		"version":"2.0"
	},
	"scene":0,
	"scenes":[
		{
			"name":"Scene",
			"nodes":[
				1
			]
		}
	],
	"nodes":[
		{
			"mesh":0,
			"name":"Mesh_Mesh_head_geo.001_lambert2SG.001"
		},
		{
			"children":[
				0
			],
			"name":"Node_1",
			"rotation":[
				-0.70710688829422,
				0,
				0,
				0.7071066498756409
			]
		}
	],
	"materials":[
		{
			"name":"lambert2SG.001",
			"pbrMetallicRoughness":{
				"metallicFactor":0.5,
				"roughnessFactor":0.5
			}
		}
	],
	"meshes":[
		{
			"name":"Mesh_0",
			"primitives":[
				{
					"attributes":{
						"COLOR_0":0,
						"POSITION":1,
						"NORMAL":2
					},
					"indices":3,
					"material":0
				}
			]
		}
	],
	"accessors":[
		{
			"bufferView":0,
			"componentType":5123,
			"count":32778,
			"normalized":true,
			"type":"VEC4"
		},
		{
			"bufferView":1,
			"componentType":5126,
			"count":32778,
			"max":[
				45,
				3.748090298414178e-14,
				124
			],
			"min":[
				-23,
				-63,
				0
			],
			"type":"VEC3"
		},
		{
			"bufferView":2,
			"componentType":5126,
			"count":32778,
			"type":"VEC3"
		},
		{
			"bufferView":3,
			"componentType":5123,
			"count":32778,
			"type":"SCALAR"
		}
	],
	"bufferViews":[
		{
			"buffer":0,
			"byteLength":262224,
			"byteOffset":0,
			"target":34962
		},
		{
			"buffer":0,
			"byteLength":393336,
			"byteOffset":262224,
			"target":34962
		},
		{
			"buffer":0,
			"byteLength":393336,
			"byteOffset":655560,
			"target":34962
		},
		{
			"buffer":0,
			"byteLength":65556,
			"byteOffset":1048896,
			"target":34963
		}
	],
	"buffers":[
		{
			"byteLength":1114452,
			"uri":"data:application/octet-stream;base64,"
		}
	]
}
