{
	"asset":{
		"generator":"Khronos glTF Blender I/O v3.6.27",
		"version":"2.0"
	},
	"scene":0,
	"scenes":[
		{
			"name":"Scene",
			"nodes":[
				1
			]
		}
	],
	"nodes":[
		{
			"mesh":0,
			"name":"Mesh_Mesh_head_geo.001_lambert2SG.003"
		},
		{
			"children":[
				0
			],
			"name":"Node_1.002",
			"rotation":[
				-0.70710688829422,
				0,
				0,
				0.7071066498756409
			]
		}
	],
	"materials":[
		{
			"name":"lambert2SG.003",
			"pbrMetallicRoughness":{
				"metallicFactor":0.5,
				"roughnessFactor":0.5
			}
		}
	],
	"meshes":[
		{
			"name":"Mesh_0.002",
			"primitives":[
				{
					"attributes":{
						"COLOR_0":0,
						"POSITION":1,
						"NORMAL":2
					},
					"indices":3,
					"material":0
				}
			]
		}
	],
	"accessors":[
		{
			"bufferView":0,
			"componentType":5123,
			"count":4116,
			"normalized":true,
			"type":"VEC4"
		},
		{
			"bufferView":1,
			"componentType":5126,
			"count":4116,
			"max":[
				-35,
				28,
				128.0019989013672
			],
			"min":[
				-80,
				-17,
				0
			],
			"type":"VEC3"
		},
		{
			"bufferView":2,
			"componentType":5126,
			"count":4116,
			"type":"VEC3"
		},
		{
			"bufferView":3,
			"componentType":5123,
			"count":4116,
			"type":"SCALAR"
		}
	],
	"bufferViews":[
		{
			"buffer":0,
			"byteLength":32928,
			"byteOffset":0,
			"target":34962
		},
		{
			"buffer":0,
			"byteLength":49392,
			"byteOffset":32928,
			"target":34962
		},
		{
			"buffer":0,
			"byteLength":49392,
			"byteOffset":82320,
			"target":34962
		},
		{
			"buffer":0,
			"byteLength":8232,
			"byteOffset":131712,
			"target":34963
		}
	],
	"buffers":[
		{
			"byteLength":139944,
			"uri":"data:application/octet-stream;base64,"
		}
	]
}
