{
	"asset":{
		"generator":"Khronos glTF Blender I/O v3.6.27",
		"version":"2.0"
	},
	"scene":0,
	"scenes":[
		{
			"name":"Scene",
			"nodes":[
				1
			]
		}
	],
	"nodes":[
		{
			"mesh":0,
			"name":"Mesh_Mesh_head_geo.001_lambert2SG.002"
		},
		{
			"children":[
				0
			],
			"name":"Node_1.001",
			"rotation":[
				-0.70710688829422,
				0,
				0,
				0.7071066498756409
			]
		}
	],
	"materials":[
		{
			"name":"lambert2SG.007",
			"pbrMetallicRoughness":{
				"metallicFactor":0.5,
				"roughnessFactor":0.5
			}
		}
	],
	"meshes":[
		{
			"name":"Mesh_0.006",
			"primitives":[
				{
					"attributes":{
						"COLOR_0":0,
						"POSITION":1,
						"NORMAL":2
					},
					"indices":3,
					"material":0
				}
			]
		}
	],
	"accessors":[
		{
			"bufferView":0,
			"componentType":5123,
			"count":26226,
			"normalized":true,
			"type":"VEC4"
		},
		{
			"bufferView":1,
			"componentType":5126,
			"count":26226,
			"max":[
				-13,
				3,
				15
			],
			"min":[
				-26,
				-14,
				-1
			],
			"type":"VEC3"
		},
		{
			"bufferView":2,
			"componentType":5126,
			"count":26226,
			"type":"VEC3"
		},
		{
			"bufferView":3,
			"componentType":5123,
			"count":26226,
			"type":"SCALAR"
		}
	],
	"bufferViews":[
		{
			"buffer":0,
			"byteLength":209808,
			"byteOffset":0,
			"target":34962
		},
		{
			"buffer":0,
			"byteLength":314712,
			"byteOffset":209808,
			"target":34962
		},
		{
			"buffer":0,
			"byteLength":314712,
			"byteOffset":524520,
			"target":34962
		},
		{
			"buffer":0,
			"byteLength":52452,
			"byteOffset":839232,
			"target":34963
		}
	],
	"buffers":[
		{
			"byteLength":891684,
			"uri":"data:application/octet-stream;base64,"
		}
	]
}
