{
	"asset":{
		"generator":"Khronos glTF Blender I/O v3.6.27",
		"version":"2.0"
	},
	"scene":0,
	"scenes":[
		{
			"name":"Scene",
			"nodes":[
				1
			]
		}
	],
	"nodes":[
		{
			"mesh":0,
			"name":"Mesh_Mesh_head_geo.001_lambert2SG.001"
		},
		{
			"children":[
				0
			],
			"name":"Node_1",
			"rotation":[
				-0.70710688829422,
				0,
				0,
				0.7071066498756409
			]
		}
	],
	"materials":[
		{
			"name":"lambert2SG.007",
			"pbrMetallicRoughness":{
				"metallicFactor":0.5,
				"roughnessFactor":0.5
			}
		}
	],
	"meshes":[
		{
			"name":"Mesh_0.006",
			"primitives":[
				{
					"attributes":{
						"COLOR_0":0,
						"POSITION":1,
						"NORMAL":2
					},
					"indices":3,
					"material":0
				}
			]
		}
	],
	"accessors":[
		{
			"bufferView":0,
			"componentType":5123,
			"count":67980,
			"normalized":true,
			"type":"VEC4"
		},
		{
			"bufferView":1,
			"componentType":5126,
			"count":67980,
			"max":[
				26,
				-14.880000114440918,
				78
			],
			"min":[
				-0.0010000000474974513,
				-36.000999450683594,
				0.0010000000474974513
			],
			"type":"VEC3"
		},
		{
			"bufferView":2,
			"componentType":5126,
			"count":67980,
			"type":"VEC3"
		},
		{
			"bufferView":3,
			"componentType":5125,
			"count":67980,
			"type":"SCALAR"
		}
	],
	"bufferViews":[
		{
			"buffer":0,
			"byteLength":543840,
			"byteOffset":0,
			"target":34962
		},
		{
			"buffer":0,
			"byteLength":815760,
			"byteOffset":543840,
			"target":34962
		},
		{
			"buffer":0,
			"byteLength":815760,
			"byteOffset":1359600,
			"target":34962
		},
		{
			"buffer":0,
			"byteLength":271920,
			"byteOffset":2175360,
			"target":34963
		}
	],
	"buffers":[
		{
			"byteLength":2447280,
			"uri":"data:application/octet-stream;base64,"
		}
	]
}
