{
	"asset":{
		"generator":"Khronos glTF Blender I/O v3.6.27",
		"version":"2.0"
	},
	"scene":0,
	"scenes":[
		{
			"name":"Scene",
			"nodes":[
				1
			]
		}
	],
	"nodes":[
		{
			"mesh":0,
			"name":"Mesh_Mesh_head_geo.001_lambert2SG.001"
		},
		{
			"children":[
				0
			],
			"name":"Node_1",
			"rotation":[
				-0.70710688829422,
				0,
				0,
				0.7071066498756409
			]
		}
	],
	"materials":[
		{
			"name":"lambert2SG.008",
			"pbrMetallicRoughness":{
				"metallicFactor":0.5,
				"roughnessFactor":0.5
			}
		}
	],
	"meshes":[
		{
			"name":"Mesh_0.007",
			"primitives":[
				{
					"attributes":{
						"COLOR_0":0,
						"POSITION":1,
						"NORMAL":2
					},
					"indices":3,
					"material":0
				}
			]
		}
	],
	"accessors":[
		{
			"bufferView":0,
			"componentType":5123,
			"count":16650,
			"normalized":true,
			"type":"VEC4"
		},
		{
			"bufferView":1,
			"componentType":5126,
			"count":16650,
			"max":[
				-64,
				35,
				25
			],
			"min":[
				-100.99099731445312,
				18,
				2.584053305533518e-13
			],
			"type":"VEC3"
		},
		{
			"bufferView":2,
			"componentType":5126,
			"count":16650,
			"type":"VEC3"
		},
		{
			"bufferView":3,
			"componentType":5123,
			"count":16650,
			"type":"SCALAR"
		}
	],
	"bufferViews":[
		{
			"buffer":0,
			"byteLength":133200,
			"byteOffset":0,
			"target":34962
		},
		{
			"buffer":0,
			"byteLength":199800,
			"byteOffset":133200,
			"target":34962
		},
		{
			"buffer":0,
			"byteLength":199800,
			"byteOffset":333000,
			"target":34962
		},
		{
			"buffer":0,
			"byteLength":33300,
			"byteOffset":532800,
			"target":34963
		}
	],
	"buffers":[
		{
			"byteLength":566100,
			"uri":"data:application/octet-stream;base64,"
		}
	]
}
