{
	"asset":{
		"generator":"Khronos glTF Blender I/O v3.6.27",
		"version":"2.0"
	},
	"scene":0,
	"scenes":[
		{
			"name":"Scene",
			"nodes":[
				1
			]
		}
	],
	"nodes":[
		{
			"mesh":0,
			"name":"Mesh_Mesh_head_geo.001_lambert2SG.002"
		},
		{
			"children":[
				0
			],
			"name":"Node_1.001",
			"rotation":[
				-0.70710688829422,
				0,
				0,
				0.7071066498756409
			]
		}
	],
	"materials":[
		{
			"name":"lambert2SG.002",
			"pbrMetallicRoughness":{
				"metallicFactor":0.5,
				"roughnessFactor":0.5
			}
		}
	],
	"meshes":[
		{
			"name":"Mesh_0.001",
			"primitives":[
				{
					"attributes":{
						"COLOR_0":0,
						"POSITION":1,
						"NORMAL":2
					},
					"indices":3,
					"material":0
				}
			]
		}
	],
	"accessors":[
		{
			"bufferView":0,
			"componentType":5123,
			"count":18966,
			"normalized":true,
			"type":"VEC4"
		},
		{
			"bufferView":1,
			"componentType":5126,
			"count":18966,
			"max":[
				52,
				36,
				36
			],
			"min":[
				-6,
				-4,
				-1.6359123181192647e-15
			],
			"type":"VEC3"
		},
		{
			"bufferView":2,
			"componentType":5126,
			"count":18966,
			"type":"VEC3"
		},
		{
			"bufferView":3,
			"componentType":5123,
			"count":18966,
			"type":"SCALAR"
		}
	],
	"bufferViews":[
		{
			"buffer":0,
			"byteLength":151728,
			"byteOffset":0,
			"target":34962
		},
		{
			"buffer":0,
			"byteLength":227592,
			"byteOffset":151728,
			"target":34962
		},
		{
			"buffer":0,
			"byteLength":227592,
			"byteOffset":379320,
			"target":34962
		},
		{
			"buffer":0,
			"byteLength":37932,
			"byteOffset":606912,
			"target":34963
		}
	],
	"buffers":[
		{
			"byteLength":644844,
			"uri":"data:application/octet-stream;base64,"
		}
	]
}
