{
	"asset":{
		"generator":"Khronos glTF Blender I/O v3.6.27",
		"version":"2.0"
	},
	"scene":0,
	"scenes":[
		{
			"name":"Scene",
			"nodes":[
				0,
				1,
				2,
				3
			]
		}
	],
	"nodes":[
		{
			"mesh":0,
			"name":"Poste",
			"translation":[
				0,
				1,
				0
			]
		},
		{
			"mesh":1,
			"name":"Plane",
			"rotation":[
				0,
				0,
				-0.7071068286895752,
				0.7071068286895752
			],
			"translation":[
				0,
				1,
				-1
			]
		},
		{
			"mesh":2,
			"name":"Stop",
			"rotation":[
				0,
				0,
				-0.7071068286895752,
				0.7071068286895752
			],
			"translation":[
				0.10000000149011612,
				2,
				0
			]
		},
		{
			"mesh":3,
			"name":"Text",
			"rotation":[
				0.5,
				0.5,
				-0.5,
				0.5
			],
			"scale":[
				0.26171281933784485,
				0.26171281933784485,
				0.26171281933784485
			],
			"translation":[
				0.10999999940395355,
				1.9228062629699707,
				0.3242518901824951
			]
		}
	],
	"materials":[
		{
			"doubleSided":true,
			"name":"Material.002",
			"pbrMetallicRoughness":{
				"baseColorFactor":[
					0.16794857382774353,
					0.16794857382774353,
					0.16794857382774353,
					1
				],
				"metallicFactor":0,
				"roughnessFactor":0.5
			}
		},
		{
			"doubleSided":true,
			"name":"Material",
			"pbrMetallicRoughness":{
				"baseColorFactor":[
					0.800000011920929,
					0.800000011920929,
					0.800000011920929,
					1
				],
				"metallicFactor":0,
				"roughnessFactor":0.5
			}
		},
		{
			"doubleSided":true,
			"name":"Material.001",
			"pbrMetallicRoughness":{
				"baseColorFactor":[
					0.8000000715255737,
					0,
					0.002910676645115018,
					1
				],
				"metallicFactor":0,
				"roughnessFactor":0.5
			}
		}
	],
	"meshes":[
		{
			"name":"Cube.001",
			"primitives":[
				{
					"attributes":{
						"POSITION":0,
						"NORMAL":1,
						"TEXCOORD_0":2
					},
					"indices":3,
					"material":0
				}
			]
		},
		{
			"name":"Plane.001",
			"primitives":[
				{
					"attributes":{
						"POSITION":4,
						"NORMAL":5,
						"TEXCOORD_0":6
					},
					"indices":7
				}
			]
		},
		{
			"name":"Cylinder",
			"primitives":[
				{
					"attributes":{
						"POSITION":8,
						"NORMAL":9,
						"TEXCOORD_0":10
					},
					"indices":11,
					"material":1
				},
				{
					"attributes":{
						"POSITION":12,
						"NORMAL":13,
						"TEXCOORD_0":14
					},
					"indices":15,
					"material":0
				},
				{
					"attributes":{
						"POSITION":16,
						"NORMAL":17,
						"TEXCOORD_0":18
					},
					"indices":19,
					"material":2
				}
			]
		},
		{
			"name":"Text",
			"primitives":[
				{
					"attributes":{
						"POSITION":20,
						"NORMAL":21,
						"TEXCOORD_0":22
					},
					"indices":23,
					"material":1
				}
			]
		}
	],
	"accessors":[
		{
			"bufferView":0,
			"componentType":5126,
			"count":24,
			"max":[
				0.10000002384185791,
				1.1286344528198242,
				0.10000002384185791
			],
			"min":[
				-0.10000002384185791,
				-1,
				-0.10000002384185791
			],
			"type":"VEC3"
		},
		{
			"bufferView":1,
			"componentType":5126,
			"count":24,
			"type":"VEC3"
		},
		{
			"bufferView":2,
			"componentType":5126,
			"count":24,
			"type":"VEC2"
		},
		{
			"bufferView":3,
			"componentType":5123,
			"count":36,
			"type":"SCALAR"
		},
		{
			"bufferView":4,
			"componentType":5126,
			"count":4,
			"max":[
				1.100000023841858,
				0,
				1.100000023841858
			],
			"min":[
				-1.100000023841858,
				0,
				-1.100000023841858
			],
			"type":"VEC3"
		},
		{
			"bufferView":5,
			"componentType":5126,
			"count":4,
			"type":"VEC3"
		},
		{
			"bufferView":6,
			"componentType":5126,
			"count":4,
			"type":"VEC2"
		},
		{
			"bufferView":7,
			"componentType":5123,
			"count":6,
			"type":"SCALAR"
		},
		{
			"bufferView":8,
			"componentType":5126,
			"count":64,
			"max":[
				0.44999998807907104,
				0.004999999888241291,
				0.44999998807907104
			],
			"min":[
				-0.44999998807907104,
				-0.004999999888241291,
				-0.44999998807907104
			],
			"type":"VEC3"
		},
		{
			"bufferView":9,
			"componentType":5126,
			"count":64,
			"type":"VEC3"
		},
		{
			"bufferView":10,
			"componentType":5126,
			"count":64,
			"type":"VEC2"
		},
		{
			"bufferView":11,
			"componentType":5123,
			"count":192,
			"type":"SCALAR"
		},
		{
			"bufferView":12,
			"componentType":5126,
			"count":32,
			"max":[
				0.44999998807907104,
				0.004999999888241291,
				0.44999998807907104
			],
			"min":[
				-0.44999998807907104,
				-0.004999999888241291,
				-0.44999998807907104
			],
			"type":"VEC3"
		},
		{
			"bufferView":13,
			"componentType":5126,
			"count":32,
			"type":"VEC3"
		},
		{
			"bufferView":14,
			"componentType":5126,
			"count":32,
			"type":"VEC2"
		},
		{
			"bufferView":15,
			"componentType":5123,
			"count":48,
			"type":"SCALAR"
		},
		{
			"bufferView":16,
			"componentType":5126,
			"count":172,
			"max":[
				0.44999998807907104,
				0.004999999888241291,
				0.44999998807907104
			],
			"min":[
				-0.44999998807907104,
				-0.004999999888241291,
				-0.44999998807907104
			],
			"type":"VEC3"
		},
		{
			"bufferView":17,
			"componentType":5126,
			"count":172,
			"type":"VEC3"
		},
		{
			"bufferView":18,
			"componentType":5126,
			"count":172,
			"type":"VEC2"
		},
		{
			"bufferView":19,
			"componentType":5123,
			"count":360,
			"type":"SCALAR"
		},
		{
			"bufferView":20,
			"componentType":5126,
			"count":124,
			"max":[
				2.5390002727508545,
				0,
				0.009000000543892384
			],
			"min":[
				0,
				0,
				-0.6910000443458557
			],
			"type":"VEC3"
		},
		{
			"bufferView":21,
			"componentType":5126,
			"count":124,
			"type":"VEC3"
		},
		{
			"bufferView":22,
			"componentType":5126,
			"count":124,
			"type":"VEC2"
		},
		{
			"bufferView":23,
			"componentType":5123,
			"count":351,
			"type":"SCALAR"
		}
	],
	"bufferViews":[
		{
			"buffer":0,
			"byteLength":288,
			"byteOffset":0,
			"target":34962
		},
		{
			"buffer":0,
			"byteLength":288,
			"byteOffset":288,
			"target":34962
		},
		{
			"buffer":0,
			"byteLength":192,
			"byteOffset":576,
			"target":34962
		},
		{
			"buffer":0,
			"byteLength":72,
			"byteOffset":768,
			"target":34963
		},
		{
			"buffer":0,
			"byteLength":48,
			"byteOffset":840,
			"target":34962
		},
		{
			"buffer":0,
			"byteLength":48,
			"byteOffset":888,
			"target":34962
		},
		{
			"buffer":0,
			"byteLength":32,
			"byteOffset":936,
			"target":34962
		},
		{
			"buffer":0,
			"byteLength":12,
			"byteOffset":968,
			"target":34963
		},
		{
			"buffer":0,
			"byteLength":768,
			"byteOffset":980,
			"target":34962
		},
		{
			"buffer":0,
			"byteLength":768,
			"byteOffset":1748,
			"target":34962
		},
		{
			"buffer":0,
			"byteLength":512,
			"byteOffset":2516,
			"target":34962
		},
		{
			"buffer":0,
			"byteLength":384,
			"byteOffset":3028,
			"target":34963
		},
		{
			"buffer":0,
			"byteLength":384,
			"byteOffset":3412,
			"target":34962
		},
		{
			"buffer":0,
			"byteLength":384,
			"byteOffset":3796,
			"target":34962
		},
		{
			"buffer":0,
			"byteLength":256,
			"byteOffset":4180,
			"target":34962
		},
		{
			"buffer":0,
			"byteLength":96,
			"byteOffset":4436,
			"target":34963
		},
		{
			"buffer":0,
			"byteLength":2064,
			"byteOffset":4532,
			"target":34962
		},
		{
			"buffer":0,
			"byteLength":2064,
			"byteOffset":6596,
			"target":34962
		},
		{
			"buffer":0,
			"byteLength":1376,
			"byteOffset":8660,
			"target":34962
		},
		{
			"buffer":0,
			"byteLength":720,
			"byteOffset":10036,
			"target":34963
		},
		{
			"buffer":0,
			"byteLength":1488,
			"byteOffset":10756,
			"target":34962
		},
		{
			"buffer":0,
			"byteLength":1488,
			"byteOffset":12244,
			"target":34962
		},
		{
			"buffer":0,
			"byteLength":992,
			"byteOffset":13732,
			"target":34962
		},
		{
			"buffer":0,
			"byteLength":702,
			"byteOffset":14724,
			"target":34963
		}
	],
	"buffers":[
		{
			"byteLength":15428,
			"uri":"data:application/octet-stream;base64,"
		}
	]
}
