{
	"asset":{
		"generator":"Khronos glTF Blender I/O v3.6.27",
		"version":"2.0"
	},
	"scene":0,
	"scenes":[
		{
			"name":"Scene",
			"nodes":[
				1
			]
		}
	],
	"nodes":[
		{
			"mesh":0,
			"name":"Mesh_Mesh_head_geo.001_lambert2SG.002"
		},
		{
			"children":[
				0
			],
			"name":"Node_1.001",
			"rotation":[
				-0.70710688829422,
				0,
				0,
				0.7071066498756409
			]
		}
	],
	"materials":[
		{
			"name":"lambert2SG.004",
			"pbrMetallicRoughness":{
				"metallicFactor":0.5,
				"roughnessFactor":0.5
			}
		}
	],
	"meshes":[
		{
			"name":"Mesh_0.003",
			"primitives":[
				{
					"attributes":{
						"COLOR_0":0,
						"POSITION":1,
						"NORMAL":2
					},
					"indices":3,
					"material":0
				}
			]
		}
	],
	"accessors":[
		{
			"bufferView":0,
			"componentType":5123,
			"count":7044,
			"normalized":true,
			"type":"VEC4"
		},
		{
			"bufferView":1,
			"componentType":5126,
			"count":7044,
			"max":[
				27.31399917602539,
				7.314000129699707,
				156
			],
			"min":[
				-45.70000076293945,
				-12.300000190734863,
				-1.4791141972893971e-31
			],
			"type":"VEC3"
		},
		{
			"bufferView":2,
			"componentType":5126,
			"count":7044,
			"type":"VEC3"
		},
		{
			"bufferView":3,
			"componentType":5123,
			"count":7044,
			"type":"SCALAR"
		}
	],
	"bufferViews":[
		{
			"buffer":0,
			"byteLength":56352,
			"byteOffset":0,
			"target":34962
		},
		{
			"buffer":0,
			"byteLength":84528,
			"byteOffset":56352,
			"target":34962
		},
		{
			"buffer":0,
			"byteLength":84528,
			"byteOffset":140880,
			"target":34962
		},
		{
			"buffer":0,
			"byteLength":14088,
			"byteOffset":225408,
			"target":34963
		}
	],
	"buffers":[
		{
			"byteLength":239496,
			"uri":"data:application/octet-stream;base64,"
		}
	]
}
